# xmcd CD database file
#
# Track frame offsets:
#	150
#	12335
#	22252
#	33372
#	43515
#
# Disc length: 717 seconds
#
# Revision: 0
# Processed by: cddbd v1.5.1PL2 Copyright (c) Steve Scherf et al.
# Submitted via: CDex 1.51
#
DISCID=3702cb05
DTITLE=Disney - 小さな世界　It's a Small Worldがいっぱい
DYEAR=1991
DGENRE=Anime
TTITLE0=小さな世界　It's a Small World(「ディズニーランド/ウォルト・ディズニー・ワールド」より)
TTITLE1=小さな世界　It's a Small World(「ザ・ディズニーコレクション Vol.1」より)
TTITLE2=小さな世界　It's a Small World(「ミッキーマウス・ディスコ」より)
TTITLE3=小さな世界　It's a Small World(日本語)
TTITLE4=小さな世界　It's a Small World(インストゥルメンタル)
EXTD=YEAR: 1991
EXTT0=
EXTT1=
EXTT2=
EXTT3=
EXTT4=
PLAYORDER=
